HIERARCHY
ROOT root
{
	OFFSET 0.000000 0.000000 0.000000
	CHANNELS 6 Xposition Yposition Zposition Zrotation Yrotation Xrotation
	JOINT lhip
	{
		OFFSET 0.058581 -0.082280 -0.017664
		CHANNELS 3 Zrotation Yrotation Xrotation
		JOINT lknee
		{
			OFFSET 0.043451 -0.386469 0.008037
			CHANNELS 3 Zrotation Yrotation Xrotation
			JOINT lankle
			{
				OFFSET -0.014790 -0.426874 -0.037428
				CHANNELS 3 Zrotation Yrotation Xrotation
				JOINT ltoe
				{
					OFFSET 0.041054 -0.060286 0.122042
					CHANNELS 3 Zrotation Yrotation Xrotation
					End Site
					{
						OFFSET 0.000000 0.000000 0.000000
					}
				}
			}
		}
	}
	JOINT rhip
	{
		OFFSET -0.060310 -0.090513 -0.013543
		CHANNELS 3 Zrotation Yrotation Xrotation
		JOINT rknee
		{
			OFFSET -0.043257 -0.383688 -0.004843
			CHANNELS 3 Zrotation Yrotation Xrotation
			JOINT rankle
			{
				OFFSET 0.019056 -0.420046 -0.034562
				CHANNELS 3 Zrotation Yrotation Xrotation
				JOINT rtoe
				{
					OFFSET -0.034840 -0.062106 0.130323
					CHANNELS 3 Zrotation Yrotation Xrotation
					End Site
					{
						OFFSET 0.000000 0.000000 0.000000
					}
				}
			}
		}
	}
	JOINT lowerback
	{
		OFFSET 0.004439 0.124404 -0.038385
		CHANNELS 3 Zrotation Yrotation Xrotation
		JOINT upperback
		{
			OFFSET 0.004488 0.137956 0.026820
			CHANNELS 3 Zrotation Yrotation Xrotation
			JOINT chest
			{
				OFFSET -0.002265 0.056032 0.002855
				CHANNELS 3 Zrotation Yrotation Xrotation
				JOINT lowerneck
				{
					OFFSET -0.013390 0.211636 -0.033468
					CHANNELS 3 Zrotation Yrotation Xrotation
					JOINT upperneck
					{
						OFFSET 0.010113 0.088937 0.050410
						CHANNELS 3 Zrotation Yrotation Xrotation
						End Site
						{
							OFFSET 0.000000 0.000000 0.000000
						}
					}
				}
				JOINT lclavicle
				{
					OFFSET 0.071702 0.114000 -0.018898
					CHANNELS 3 Zrotation Yrotation Xrotation
					JOINT lshoulder
					{
						OFFSET 0.122921 0.045205 -0.019046
						CHANNELS 3 Zrotation Yrotation Xrotation
						JOINT lelbow
						{
							OFFSET 0.255332 -0.015649 -0.022946
							CHANNELS 3 Zrotation Yrotation Xrotation
							JOINT lwrist
							{
								OFFSET 0.265709 0.012698 -0.007375
								CHANNELS 3 Zrotation Yrotation Xrotation
								End Site
								{
									OFFSET 0.000000 0.000000 0.000000
								}
							}
						}
					}
				}
				JOINT rclavicle
				{
					OFFSET -0.082954 0.112472 -0.023707
					CHANNELS 3 Zrotation Yrotation Xrotation
					JOINT rshoulder
					{
						OFFSET -0.113228 0.046853 -0.008472
						CHANNELS 3 Zrotation Yrotation Xrotation
						JOINT relbow
						{
							OFFSET -0.260127 -0.014369 -0.031269
							CHANNELS 3 Zrotation Yrotation Xrotation
							JOINT rwrist
							{
								OFFSET -0.269108 0.006794 -0.006027
								CHANNELS 3 Zrotation Yrotation Xrotation
								End Site
								{
									OFFSET 0.000000 0.000000 0.000000
								}
							}
						}
					}
				}
			}
		}
	}
}
MOTION
Frames: 16
Frame Time: 0.033333
2.342760 0.681723 0.988165 -88.186497 2.005398 87.790982 0.993138 -5.391380 0.623140 -1.295446 -3.361992 2.444225 5.011598 7.010137 -8.544601 0.000000 -0.000000 0.000000 1.999198 -0.830229 -5.361490 -2.329378 -2.495908 13.823515 0.794732 -7.327575 -10.141903 0.000000 -0.000000 0.000000 -9.768305 2.938950 8.111514 -4.168063 -0.803603 5.416427 -3.130498 0.122295 -2.630050 3.774934 -1.454042 4.067544 6.847413 -7.923408 14.161881 -22.992724 -21.666184 4.984014 -65.063811 -27.525006 39.274250 -79.324896 -71.838975 95.395061 -4.540706 -16.919806 -45.958543 24.495454 27.803031 7.997709 65.581347 23.418477 33.966464 0.349310 29.378354 18.033899 19.220023 -1.219156 10.137591 
2.343202 0.681668 0.988335 -88.047490 2.095920 87.831155 1.164293 -5.385648 0.387121 -1.420850 -3.348728 2.754239 4.606903 6.857150 -8.361736 0.000000 -0.000000 0.000000 2.184034 -0.838371 -5.511260 -2.548646 -2.700287 14.048875 0.785005 -7.196926 -10.180577 0.000000 -0.000000 0.000000 -9.498893 2.771949 8.197346 -4.289201 -0.766650 5.256316 -3.317371 0.166997 -2.308900 3.635824 -1.354221 4.217719 7.064712 -8.096763 13.655217 -22.061415 -21.369976 4.785563 -66.082767 -27.593068 39.822973 -79.590344 -72.041408 96.965762 -3.924336 -17.027794 -47.039342 23.441877 27.376314 7.266599 66.855163 23.322773 34.318672 0.166213 29.712736 19.168828 18.842962 -0.832387 8.898578 
2.343627 0.681600 0.988572 -87.899432 2.131397 87.734207 1.182774 -5.383494 0.330045 -1.369243 -3.396308 2.989063 4.739952 6.846279 -8.522432 0.000000 -0.000000 0.000000 2.264412 -0.776887 -5.413328 -2.623475 -2.756006 14.056845 0.775227 -7.339425 -10.114794 0.000000 -0.000000 0.000000 -9.434331 2.626374 8.497843 -4.435936 -0.784329 5.279084 -3.401853 0.178991 -2.289540 3.740879 -1.491721 4.268034 7.246407 -7.933690 13.283457 -21.759701 -21.385801 4.796975 -66.192727 -27.639416 39.828209 -80.493426 -72.145157 98.038259 -3.590209 -16.998452 -47.354346 22.771203 27.522280 7.190653 67.497847 23.521593 34.552253 0.086509 29.733095 18.788376 18.211968 -0.502219 8.504732 
2.344131 0.681257 0.988686 -87.704139 2.218066 87.786517 1.325080 -5.659742 -0.064220 -1.605961 -3.370843 3.562036 4.526762 6.847227 -8.479498 0.000000 -0.000000 0.000000 2.333513 -0.727375 -5.508909 -2.652337 -2.959645 14.208393 0.737656 -7.431662 -10.190890 0.000000 -0.000000 0.000000 -9.693838 2.787043 8.466681 -4.324037 -0.860515 5.401311 -3.143055 0.345207 -2.245395 3.837549 -1.730874 4.527240 7.357028 -8.232408 12.987032 -21.574223 -21.669998 4.952863 -66.515756 -27.818554 39.944544 -80.173729 -72.129829 97.977664 -3.518396 -16.771531 -47.864266 23.538619 28.472665 8.043247 66.109955 22.855474 34.122826 -0.855809 30.475401 18.295859 16.989312 0.304091 7.382345 
2.344595 0.681235 0.988730 -87.686349 2.238798 87.853041 1.367440 -5.728111 -0.332992 -1.652760 -3.406074 3.862791 4.787442 6.906118 -8.568797 0.000000 -0.000000 0.000000 2.360176 -0.725451 -5.724815 -2.669767 -2.955802 14.398006 0.748183 -7.464956 -10.160537 0.000000 -0.000000 0.000000 -9.570549 2.804963 8.552974 -4.373967 -0.796369 5.342491 -3.267870 0.329293 -2.156164 3.829198 -1.624695 4.448205 7.400057 -8.351562 12.842187 -21.431428 -21.492319 4.853503 -66.619528 -27.815159 39.979286 -80.608650 -72.063932 98.581962 -3.448761 -16.730394 -47.942046 23.305159 27.855387 7.706112 66.558367 23.209260 34.046429 -0.145508 30.244968 19.052504 16.791587 0.205182 7.882768 
2.344952 0.680941 0.988759 -87.643426 2.307436 87.806111 1.449772 -5.770980 -0.529895 -1.734088 -3.445158 4.268790 4.280447 6.937067 -8.357772 0.000000 -0.000000 0.000000 2.404672 -0.730336 -5.709531 -2.697200 -2.959176 14.414632 0.722467 -7.409588 -10.181697 0.000000 -0.000000 0.000000 -9.485217 2.816952 8.679161 -4.413098 -0.681684 5.409077 -3.291021 0.411550 -2.005443 3.897467 -1.456672 4.317716 7.462376 -8.430905 12.673250 -21.062953 -21.153796 4.649160 -67.103799 -27.812434 40.051160 -81.151497 -71.931416 100.059312 -3.269646 -16.766068 -48.887745 22.833238 27.418022 7.469759 66.972551 23.239598 34.129354 0.109238 30.554907 20.198755 16.282374 0.291928 7.430441 
2.344928 0.680577 0.988769 -87.650746 2.307139 87.788048 1.409189 -5.845719 -0.641784 -1.699791 -3.346253 4.535085 4.450720 6.949467 -8.560078 0.000000 -0.000000 0.000000 2.418304 -0.743725 -5.766358 -2.783865 -2.965370 14.539094 0.801938 -7.351013 -10.225037 0.000000 -0.000000 0.000000 -9.394527 2.893681 8.752857 -4.504586 -0.657632 5.371583 -3.427060 0.489189 -1.840556 3.979587 -1.439976 4.245444 7.562845 -8.489174 12.430671 -20.801893 -21.070443 4.572913 -67.359523 -27.673564 40.074327 -81.270233 -71.933208 100.489472 -3.258810 -16.957000 -48.942295 22.433091 27.319021 7.391509 67.595348 23.165628 34.316814 -0.074291 30.864440 20.421854 16.308406 0.021269 7.197795 
2.345227 0.680495 0.988982 -87.680980 2.320346 87.721549 1.429591 -5.973274 -0.743957 -1.745164 -3.196340 4.820414 4.925566 7.021939 -8.764926 0.000000 -0.000000 0.000000 2.441784 -0.811992 -5.769650 -2.762593 -2.775944 14.610765 0.774357 -7.321957 -10.167119 0.000000 -0.000000 0.000000 -9.470393 3.167504 8.678952 -4.473039 -0.538888 5.823647 -3.444124 0.511608 -1.905198 4.242575 -1.584213 4.335126 7.742544 -8.567908 11.986854 -20.728919 -21.154436 4.554454 -67.467608 -27.865992 40.105689 -81.245608 -71.574538 100.155981 -3.059346 -16.825377 -49.031163 22.225512 27.177606 7.440992 67.960469 23.048234 34.207854 -0.477288 31.078446 19.852920 15.338481 -0.162886 7.546069 
2.345229 0.680060 0.989005 -87.578963 2.281916 87.687935 1.318634 -6.054157 -0.940400 -1.711530 -3.187642 5.272219 4.857392 7.029640 -8.829104 0.000000 -0.000000 0.000000 2.351508 -0.833704 -5.814124 -2.804628 -2.877987 14.816977 0.802890 -7.280410 -10.291437 0.000000 -0.000000 0.000000 -9.421807 3.307363 8.798128 -4.549887 -0.597473 5.750322 -3.526918 0.580812 -1.836963 4.291039 -1.390692 4.484122 7.756306 -8.451772 11.697181 -20.484632 -21.243101 4.534567 -67.762393 -27.877998 40.192741 -81.144873 -71.078449 100.170387 -2.472898 -16.832761 -49.570897 21.935016 27.102307 7.599033 68.479368 22.638058 34.312082 -0.861735 31.625719 19.658923 13.429609 0.426838 7.148373 
2.345463 0.679786 0.989136 -87.478181 2.269549 87.655152 1.456448 -6.126139 -1.237064 -2.064322 -3.018363 5.847759 4.815126 6.933892 -9.064559 0.000000 -0.000000 0.000000 2.354953 -0.881525 -5.907548 -2.902578 -2.882812 15.077882 0.942040 -7.345310 -10.386988 0.000000 -0.000000 0.000000 -9.522064 3.400296 8.819497 -4.519900 -0.602669 5.738391 -3.505605 0.664414 -1.525891 4.514680 -0.972228 3.979754 7.990310 -8.158988 11.218331 -20.214660 -21.155803 4.291353 -68.042752 -28.076681 40.371524 -81.182098 -70.391287 100.175205 -2.211688 -16.738353 -49.671609 21.730216 26.891610 7.487095 68.664536 22.175862 34.409251 -0.676523 32.807685 19.806141 12.816457 0.761277 6.046410 
2.345794 0.679500 0.989332 -87.372704 2.343536 87.673503 1.570859 -6.144205 -1.470615 -2.193523 -3.079437 6.224698 4.743987 6.895113 -9.094527 0.000000 -0.000000 0.000000 2.424989 -0.828715 -5.986893 -2.881412 -2.938279 15.195912 0.781585 -7.393615 -10.431888 0.000000 -0.000000 0.000000 -9.486341 3.271242 8.901247 -4.515053 -0.774080 5.797560 -3.417294 0.602950 -1.646312 4.607088 -0.205182 3.726149 7.982413 -6.986620 10.582700 -20.269967 -21.377904 4.541893 -67.934136 -27.949726 40.163276 -81.812637 -70.552903 100.741514 -2.521371 -16.699076 -49.932505 21.657088 26.963680 7.736280 68.926438 22.053050 34.425676 -0.753542 33.790535 19.287027 12.809991 1.054723 4.894460 
2.346293 0.679154 0.989835 -87.423618 2.429386 87.517809 1.659695 -6.072264 -1.569536 -2.239834 -3.041515 6.695081 4.962164 6.875796 -9.397717 0.000000 -0.000000 0.000000 2.569940 -0.846599 -5.889833 -2.983991 -2.872696 15.270663 0.830728 -7.495440 -10.502687 0.000000 -0.000000 0.000000 -9.509316 3.062629 9.105589 -4.560976 -0.684985 5.982829 -3.174463 0.620567 -1.772372 4.885104 1.379596 2.697811 8.109969 -4.761480 9.881112 -20.381779 -21.661926 4.591701 -67.780417 -27.745966 39.804911 -81.754146 -70.767440 100.681193 -2.747965 -16.615930 -49.418247 21.321773 27.079808 7.725495 69.228217 22.051574 34.616015 -0.535266 34.917223 19.524572 14.110748 1.182899 4.758411 
2.346750 0.678667 0.989524 -87.646795 2.403439 87.550299 1.604145 -6.135122 -1.774454 -2.295157 -2.744702 6.972575 4.905445 6.854656 -9.481686 0.000000 -0.000000 0.000000 2.496399 -0.837294 -6.093518 -2.925060 -2.709200 15.390355 0.743758 -7.397851 -10.555922 0.000000 -0.000000 0.000000 -9.553306 3.181701 9.024792 -4.496063 -0.665657 6.306981 -2.920705 0.575347 -1.999682 5.243044 3.882152 1.619811 8.095149 -1.626765 8.669608 -20.729114 -22.030078 4.621264 -67.286944 -27.489956 39.272656 -82.014177 -70.779394 100.273957 -3.667163 -17.010854 -48.713411 21.428091 27.185762 7.801635 69.550629 22.306250 34.703019 -0.942963 35.383570 18.342310 16.315453 0.544445 6.057878 
2.347434 0.677921 0.989238 -87.842613 2.358634 87.651463 1.458386 -6.104545 -1.910842 -2.142572 -2.647922 6.880041 5.217152 6.918571 -9.562602 0.000000 -0.000000 0.000000 2.402127 -0.841468 -6.408133 -2.865971 -2.454898 15.589340 0.765054 -7.491737 -10.587773 0.000000 -0.000000 0.000000 -9.444593 3.271162 9.080630 -4.571013 -0.691126 6.208770 -2.642955 0.521990 -1.959469 5.734973 7.350548 0.322846 7.861758 2.375746 7.454485 -21.088784 -22.246335 4.570993 -66.827802 -27.332561 38.896765 -82.192163 -70.508680 100.460241 -3.004827 -16.779992 -49.049074 21.566030 27.110599 8.108245 68.976031 22.728914 34.942354 0.354151 36.728250 19.309790 15.423351 1.120218 4.050180 
2.347966 0.677232 0.989229 -88.173978 2.338753 87.762996 1.417575 -5.883340 -1.900737 -2.143015 -2.597740 6.590648 4.911155 6.889082 -9.424153 0.000000 -0.000000 0.000000 2.365903 -0.668050 -6.651128 -2.846360 -2.309191 15.651194 0.745306 -7.419930 -10.536987 0.000000 -0.000000 0.000000 -9.231585 3.219567 9.067326 -4.698703 -0.587410 6.273329 -2.354612 0.609699 -2.143806 5.775918 11.498833 -0.922201 7.460877 7.325056 5.989306 -21.505868 -22.794704 4.596506 -66.290696 -26.706842 38.350542 -82.593599 -70.822289 100.755150 -3.559228 -16.785580 -48.150033 21.576020 27.183808 8.461583 68.854751 23.129441 35.139574 0.770785 37.991106 19.503036 16.641916 0.705339 3.536788 
2.348340 0.676304 0.989218 -88.383083 2.277189 87.916736 1.222444 -5.774067 -1.782726 -1.979006 -2.617765 6.055529 4.826443 6.903352 -9.196835 0.000000 -0.000000 0.000000 2.276085 -0.608181 -6.999507 -2.900647 -2.259902 15.812429 0.764942 -7.474447 -10.595784 0.000000 -0.000000 0.000000 -9.056058 3.075140 9.262326 -4.749692 -0.466612 5.744764 -2.031916 0.678850 -2.059006 5.486395 15.735684 -2.406180 6.665092 12.062357 4.722111 -21.339476 -22.937461 4.232333 -66.486677 -26.403396 38.204526 -82.318140 -70.419740 100.422222 -2.662881 -16.574403 -48.569751 21.386235 26.833553 8.790224 68.946676 23.713551 35.470332 1.275317 39.095114 19.881457 16.100598 1.153621 3.160157 
